0
SECTION
2
HEADER
9
$INSUNITS
70
4
0
ENDSEC
0
SECTION
2
TABLES
0
TABLE
2
LTYPE
0
LTYPE
72
65
70
64
2
CONTINUOUS
3
______
73
0
40
0
0
ENDTAB
0
TABLE
2
LAYER
0
ENDTAB
0
ENDSEC
0
SECTION
2
ENTITIES
0
LINE
8
front_outsideCutPath
10
11.4
20
9.5
11
24
21
9.5
0
LINE
8
front_outsideCutPath
10
24
20
9.5
11
24
21
3
0
LINE
8
front_outsideCutPath
10
24
20
3
11
37.4
21
3
0
LINE
8
front_outsideCutPath
10
37.4
20
3
11
37.4
21
9.5
0
LINE
8
front_outsideCutPath
10
37.4
20
9.5
11
50
21
9.5
0
LINE
8
front_outsideCutPath
10
50
20
9.5
11
50
21
3
0
LINE
8
front_outsideCutPath
10
50
20
3
11
63.4
21
3
0
LINE
8
front_outsideCutPath
10
63.4
20
3
11
63.4
21
9.5
0
LINE
8
front_outsideCutPath
10
63.4
20
9.5
11
76
21
9.5
0
LINE
8
front_outsideCutPath
10
76
20
9.5
11
76
21
3
0
LINE
8
front_outsideCutPath
10
76
20
3
11
89.4
21
3
0
LINE
8
front_outsideCutPath
10
89.4
20
3
11
89.4
21
9.5
0
LINE
8
front_outsideCutPath
10
89.4
20
9.5
11
102
21
9.5
0
LINE
8
front_outsideCutPath
10
102
20
9.5
11
102
21
3
0
LINE
8
front_outsideCutPath
10
102
20
3
11
113.4
21
3
0
LINE
8
front_outsideCutPath
10
113.4
20
3
11
113.4
21
24.15
0
LINE
8
front_outsideCutPath
10
113.4
20
24.15
11
106.9
21
24.15
0
LINE
8
front_outsideCutPath
10
106.9
20
24.15
11
106.9
21
36.75
0
LINE
8
front_outsideCutPath
10
106.9
20
36.75
11
113.4
21
36.75
0
LINE
8
front_outsideCutPath
10
113.4
20
36.75
11
113.4
21
50.15
0
LINE
8
front_outsideCutPath
10
113.4
20
50.15
11
106.9
21
50.15
0
LINE
8
front_outsideCutPath
10
106.9
20
50.15
11
106.9
21
62.75
0
LINE
8
front_outsideCutPath
10
106.9
20
62.75
11
113.4
21
62.75
0
LINE
8
front_outsideCutPath
10
113.4
20
62.75
11
113.4
21
76.15
0
LINE
8
front_outsideCutPath
10
113.4
20
76.15
11
106.9
21
76.15
0
LINE
8
front_outsideCutPath
10
106.9
20
76.15
11
106.9
21
88.75
0
LINE
8
front_outsideCutPath
10
106.9
20
88.75
11
113.4
21
88.75
0
LINE
8
front_outsideCutPath
10
113.4
20
88.75
11
113.4
21
109.9
0
LINE
8
front_outsideCutPath
10
113.4
20
109.9
11
0
21
109.9
0
LINE
8
front_outsideCutPath
10
0
20
109.9
11
0
21
88.75
0
LINE
8
front_outsideCutPath
10
0
20
88.75
11
6.5
21
88.75
0
LINE
8
front_outsideCutPath
10
6.5
20
88.75
11
6.5
21
76.15
0
LINE
8
front_outsideCutPath
10
6.5
20
76.15
11
0
21
76.15
0
LINE
8
front_outsideCutPath
10
0
20
76.15
11
0
21
62.75
0
LINE
8
front_outsideCutPath
10
0
20
62.75
11
6.5
21
62.75
0
LINE
8
front_outsideCutPath
10
6.5
20
62.75
11
6.5
21
50.15
0
LINE
8
front_outsideCutPath
10
6.5
20
50.15
11
0
21
50.15
0
LINE
8
front_outsideCutPath
10
0
20
50.15
11
0
21
36.75
0
LINE
8
front_outsideCutPath
10
0
20
36.75
11
6.5
21
36.75
0
LINE
8
front_outsideCutPath
10
6.5
20
36.75
11
6.5
21
24.15
0
LINE
8
front_outsideCutPath
10
6.5
20
24.15
11
0
21
24.15
0
LINE
8
front_outsideCutPath
10
0
20
24.15
11
0
21
3
0
LINE
8
front_outsideCutPath
10
0
20
3
11
11.4
21
3
0
LINE
8
front_outsideCutPath
10
11.4
20
3
11
11.4
21
9.5
0
LINE
8
left_outsideCutPath
10
127.8
20
9.5
11
140.4
21
9.5
0
LINE
8
left_outsideCutPath
10
140.4
20
9.5
11
140.4
21
3
0
LINE
8
left_outsideCutPath
10
140.4
20
3
11
153.8
21
3
0
LINE
8
left_outsideCutPath
10
153.8
20
3
11
153.8
21
9.5
0
LINE
8
left_outsideCutPath
10
153.8
20
9.5
11
166.4
21
9.5
0
LINE
8
left_outsideCutPath
10
166.4
20
9.5
11
166.4
21
3
0
LINE
8
left_outsideCutPath
10
166.4
20
3
11
179.8
21
3
0
LINE
8
left_outsideCutPath
10
179.8
20
3
11
179.8
21
9.5
0
LINE
8
left_outsideCutPath
10
179.8
20
9.5
11
192.4
21
9.5
0
LINE
8
left_outsideCutPath
10
192.4
20
9.5
11
192.4
21
3
0
LINE
8
left_outsideCutPath
10
192.4
20
3
11
205.8
21
3
0
LINE
8
left_outsideCutPath
10
205.8
20
3
11
205.8
21
9.5
0
LINE
8
left_outsideCutPath
10
205.8
20
9.5
11
218.4
21
9.5
0
LINE
8
left_outsideCutPath
10
218.4
20
9.5
11
218.4
21
3
0
LINE
8
left_outsideCutPath
10
218.4
20
3
11
223.3
21
3
0
LINE
8
left_outsideCutPath
10
223.3
20
3
11
223.3
21
23.75
0
LINE
8
left_outsideCutPath
10
223.3
20
23.75
11
229.8
21
23.75
0
LINE
8
left_outsideCutPath
10
229.8
20
23.75
11
229.8
21
37.15
0
LINE
8
left_outsideCutPath
10
229.8
20
37.15
11
223.3
21
37.15
0
LINE
8
left_outsideCutPath
10
223.3
20
37.15
11
223.3
21
49.75
0
LINE
8
left_outsideCutPath
10
223.3
20
49.75
11
229.8
21
49.75
0
LINE
8
left_outsideCutPath
10
229.8
20
49.75
11
229.8
21
63.15
0
LINE
8
left_outsideCutPath
10
229.8
20
63.15
11
223.3
21
63.15
0
LINE
8
left_outsideCutPath
10
223.3
20
63.15
11
223.3
21
75.75
0
LINE
8
left_outsideCutPath
10
223.3
20
75.75
11
229.8
21
75.75
0
LINE
8
left_outsideCutPath
10
229.8
20
75.75
11
229.8
21
89.15
0
LINE
8
left_outsideCutPath
10
229.8
20
89.15
11
223.3
21
89.15
0
LINE
8
left_outsideCutPath
10
223.3
20
89.15
11
223.3
21
109.9
0
LINE
8
left_outsideCutPath
10
223.3
20
109.9
11
122.9
21
109.9
0
LINE
8
left_outsideCutPath
10
122.9
20
109.9
11
122.9
21
89.15
0
LINE
8
left_outsideCutPath
10
122.9
20
89.15
11
116.4
21
89.15
0
LINE
8
left_outsideCutPath
10
116.4
20
89.15
11
116.4
21
75.75
0
LINE
8
left_outsideCutPath
10
116.4
20
75.75
11
122.9
21
75.75
0
LINE
8
left_outsideCutPath
10
122.9
20
75.75
11
122.9
21
63.15
0
LINE
8
left_outsideCutPath
10
122.9
20
63.15
11
116.4
21
63.15
0
LINE
8
left_outsideCutPath
10
116.4
20
63.15
11
116.4
21
49.75
0
LINE
8
left_outsideCutPath
10
116.4
20
49.75
11
122.9
21
49.75
0
LINE
8
left_outsideCutPath
10
122.9
20
49.75
11
122.9
21
37.15
0
LINE
8
left_outsideCutPath
10
122.9
20
37.15
11
116.4
21
37.15
0
LINE
8
left_outsideCutPath
10
116.4
20
37.15
11
116.4
21
23.75
0
LINE
8
left_outsideCutPath
10
116.4
20
23.75
11
122.9
21
23.75
0
LINE
8
left_outsideCutPath
10
122.9
20
23.75
11
122.9
21
3
0
LINE
8
left_outsideCutPath
10
122.9
20
3
11
127.8
21
3
0
LINE
8
left_outsideCutPath
10
127.8
20
3
11
127.8
21
9.5
0
LINE
8
back_outsideCutPath
10
11.4
20
119.4
11
24
21
119.4
0
LINE
8
back_outsideCutPath
10
24
20
119.4
11
24
21
112.9
0
LINE
8
back_outsideCutPath
10
24
20
112.9
11
37.4
21
112.9
0
LINE
8
back_outsideCutPath
10
37.4
20
112.9
11
37.4
21
119.4
0
LINE
8
back_outsideCutPath
10
37.4
20
119.4
11
50
21
119.4
0
LINE
8
back_outsideCutPath
10
50
20
119.4
11
50
21
112.9
0
LINE
8
back_outsideCutPath
10
50
20
112.9
11
63.4
21
112.9
0
LINE
8
back_outsideCutPath
10
63.4
20
112.9
11
63.4
21
119.4
0
LINE
8
back_outsideCutPath
10
63.4
20
119.4
11
76
21
119.4
0
LINE
8
back_outsideCutPath
10
76
20
119.4
11
76
21
112.9
0
LINE
8
back_outsideCutPath
10
76
20
112.9
11
89.4
21
112.9
0
LINE
8
back_outsideCutPath
10
89.4
20
112.9
11
89.4
21
119.4
0
LINE
8
back_outsideCutPath
10
89.4
20
119.4
11
102
21
119.4
0
LINE
8
back_outsideCutPath
10
102
20
119.4
11
102
21
112.9
0
LINE
8
back_outsideCutPath
10
102
20
112.9
11
113.4
21
112.9
0
LINE
8
back_outsideCutPath
10
113.4
20
112.9
11
113.4
21
134.05
0
LINE
8
back_outsideCutPath
10
113.4
20
134.05
11
106.9
21
134.05
0
LINE
8
back_outsideCutPath
10
106.9
20
134.05
11
106.9
21
146.65
0
LINE
8
back_outsideCutPath
10
106.9
20
146.65
11
113.4
21
146.65
0
LINE
8
back_outsideCutPath
10
113.4
20
146.65
11
113.4
21
160.05
0
LINE
8
back_outsideCutPath
10
113.4
20
160.05
11
106.9
21
160.05
0
LINE
8
back_outsideCutPath
10
106.9
20
160.05
11
106.9
21
172.65
0
LINE
8
back_outsideCutPath
10
106.9
20
172.65
11
113.4
21
172.65
0
LINE
8
back_outsideCutPath
10
113.4
20
172.65
11
113.4
21
186.05
0
LINE
8
back_outsideCutPath
10
113.4
20
186.05
11
106.9
21
186.05
0
LINE
8
back_outsideCutPath
10
106.9
20
186.05
11
106.9
21
198.65
0
LINE
8
back_outsideCutPath
10
106.9
20
198.65
11
113.4
21
198.65
0
LINE
8
back_outsideCutPath
10
113.4
20
198.65
11
113.4
21
219.8
0
LINE
8
back_outsideCutPath
10
113.4
20
219.8
11
0
21
219.8
0
LINE
8
back_outsideCutPath
10
0
20
219.8
11
0
21
198.65
0
LINE
8
back_outsideCutPath
10
0
20
198.65
11
6.5
21
198.65
0
LINE
8
back_outsideCutPath
10
6.5
20
198.65
11
6.5
21
186.05
0
LINE
8
back_outsideCutPath
10
6.5
20
186.05
11
0
21
186.05
0
LINE
8
back_outsideCutPath
10
0
20
186.05
11
0
21
172.65
0
LINE
8
back_outsideCutPath
10
0
20
172.65
11
6.5
21
172.65
0
LINE
8
back_outsideCutPath
10
6.5
20
172.65
11
6.5
21
160.05
0
LINE
8
back_outsideCutPath
10
6.5
20
160.05
11
0
21
160.05
0
LINE
8
back_outsideCutPath
10
0
20
160.05
11
0
21
146.65
0
LINE
8
back_outsideCutPath
10
0
20
146.65
11
6.5
21
146.65
0
LINE
8
back_outsideCutPath
10
6.5
20
146.65
11
6.5
21
134.05
0
LINE
8
back_outsideCutPath
10
6.5
20
134.05
11
0
21
134.05
0
LINE
8
back_outsideCutPath
10
0
20
134.05
11
0
21
112.9
0
LINE
8
back_outsideCutPath
10
0
20
112.9
11
11.4
21
112.9
0
LINE
8
back_outsideCutPath
10
11.4
20
112.9
11
11.4
21
119.4
0
LINE
8
right_outsideCutPath
10
127.8
20
119.4
11
140.4
21
119.4
0
LINE
8
right_outsideCutPath
10
140.4
20
119.4
11
140.4
21
112.9
0
LINE
8
right_outsideCutPath
10
140.4
20
112.9
11
153.8
21
112.9
0
LINE
8
right_outsideCutPath
10
153.8
20
112.9
11
153.8
21
119.4
0
LINE
8
right_outsideCutPath
10
153.8
20
119.4
11
166.4
21
119.4
0
LINE
8
right_outsideCutPath
10
166.4
20
119.4
11
166.4
21
112.9
0
LINE
8
right_outsideCutPath
10
166.4
20
112.9
11
179.8
21
112.9
0
LINE
8
right_outsideCutPath
10
179.8
20
112.9
11
179.8
21
119.4
0
LINE
8
right_outsideCutPath
10
179.8
20
119.4
11
192.4
21
119.4
0
LINE
8
right_outsideCutPath
10
192.4
20
119.4
11
192.4
21
112.9
0
LINE
8
right_outsideCutPath
10
192.4
20
112.9
11
205.8
21
112.9
0
LINE
8
right_outsideCutPath
10
205.8
20
112.9
11
205.8
21
119.4
0
LINE
8
right_outsideCutPath
10
205.8
20
119.4
11
218.4
21
119.4
0
LINE
8
right_outsideCutPath
10
218.4
20
119.4
11
218.4
21
112.9
0
LINE
8
right_outsideCutPath
10
218.4
20
112.9
11
223.3
21
112.9
0
LINE
8
right_outsideCutPath
10
223.3
20
112.9
11
223.3
21
133.65
0
LINE
8
right_outsideCutPath
10
223.3
20
133.65
11
229.8
21
133.65
0
LINE
8
right_outsideCutPath
10
229.8
20
133.65
11
229.8
21
147.05
0
LINE
8
right_outsideCutPath
10
229.8
20
147.05
11
223.3
21
147.05
0
LINE
8
right_outsideCutPath
10
223.3
20
147.05
11
223.3
21
159.65
0
LINE
8
right_outsideCutPath
10
223.3
20
159.65
11
229.8
21
159.65
0
LINE
8
right_outsideCutPath
10
229.8
20
159.65
11
229.8
21
173.05
0
LINE
8
right_outsideCutPath
10
229.8
20
173.05
11
223.3
21
173.05
0
LINE
8
right_outsideCutPath
10
223.3
20
173.05
11
223.3
21
185.65
0
LINE
8
right_outsideCutPath
10
223.3
20
185.65
11
229.8
21
185.65
0
LINE
8
right_outsideCutPath
10
229.8
20
185.65
11
229.8
21
199.05
0
LINE
8
right_outsideCutPath
10
229.8
20
199.05
11
223.3
21
199.05
0
LINE
8
right_outsideCutPath
10
223.3
20
199.05
11
223.3
21
219.8
0
LINE
8
right_outsideCutPath
10
223.3
20
219.8
11
122.9
21
219.8
0
LINE
8
right_outsideCutPath
10
122.9
20
219.8
11
122.9
21
199.05
0
LINE
8
right_outsideCutPath
10
122.9
20
199.05
11
116.4
21
199.05
0
LINE
8
right_outsideCutPath
10
116.4
20
199.05
11
116.4
21
185.65
0
LINE
8
right_outsideCutPath
10
116.4
20
185.65
11
122.9
21
185.65
0
LINE
8
right_outsideCutPath
10
122.9
20
185.65
11
122.9
21
173.05
0
LINE
8
right_outsideCutPath
10
122.9
20
173.05
11
116.4
21
173.05
0
LINE
8
right_outsideCutPath
10
116.4
20
173.05
11
116.4
21
159.65
0
LINE
8
right_outsideCutPath
10
116.4
20
159.65
11
122.9
21
159.65
0
LINE
8
right_outsideCutPath
10
122.9
20
159.65
11
122.9
21
147.05
0
LINE
8
right_outsideCutPath
10
122.9
20
147.05
11
116.4
21
147.05
0
LINE
8
right_outsideCutPath
10
116.4
20
147.05
11
116.4
21
133.65
0
LINE
8
right_outsideCutPath
10
116.4
20
133.65
11
122.9
21
133.65
0
LINE
8
right_outsideCutPath
10
122.9
20
133.65
11
122.9
21
112.9
0
LINE
8
right_outsideCutPath
10
122.9
20
112.9
11
127.8
21
112.9
0
LINE
8
right_outsideCutPath
10
127.8
20
112.9
11
127.8
21
119.4
0
LINE
8
bottom_outsideCutPath
10
257.2
20
9.5
11
269.8
21
9.5
0
LINE
8
bottom_outsideCutPath
10
269.8
20
9.5
11
269.8
21
3
0
LINE
8
bottom_outsideCutPath
10
269.8
20
3
11
283.2
21
3
0
LINE
8
bottom_outsideCutPath
10
283.2
20
3
11
283.2
21
9.5
0
LINE
8
bottom_outsideCutPath
10
283.2
20
9.5
11
295.8
21
9.5
0
LINE
8
bottom_outsideCutPath
10
295.8
20
9.5
11
295.8
21
3
0
LINE
8
bottom_outsideCutPath
10
295.8
20
3
11
309.2
21
3
0
LINE
8
bottom_outsideCutPath
10
309.2
20
3
11
309.2
21
9.5
0
LINE
8
bottom_outsideCutPath
10
309.2
20
9.5
11
321.8
21
9.5
0
LINE
8
bottom_outsideCutPath
10
321.8
20
9.5
11
321.8
21
3
0
LINE
8
bottom_outsideCutPath
10
321.8
20
3
11
335.2
21
3
0
LINE
8
bottom_outsideCutPath
10
335.2
20
3
11
335.2
21
9.5
0
LINE
8
bottom_outsideCutPath
10
335.2
20
9.5
11
339.7
21
9.5
0
LINE
8
bottom_outsideCutPath
10
339.7
20
9.5
11
339.7
21
14
0
LINE
8
bottom_outsideCutPath
10
339.7
20
14
11
346.2
21
14
0
LINE
8
bottom_outsideCutPath
10
346.2
20
14
11
346.2
21
27.4
0
LINE
8
bottom_outsideCutPath
10
346.2
20
27.4
11
339.7
21
27.4
0
LINE
8
bottom_outsideCutPath
10
339.7
20
27.4
11
339.7
21
40
0
LINE
8
bottom_outsideCutPath
10
339.7
20
40
11
346.2
21
40
0
LINE
8
bottom_outsideCutPath
10
346.2
20
40
11
346.2
21
53.4
0
LINE
8
bottom_outsideCutPath
10
346.2
20
53.4
11
339.7
21
53.4
0
LINE
8
bottom_outsideCutPath
10
339.7
20
53.4
11
339.7
21
66
0
LINE
8
bottom_outsideCutPath
10
339.7
20
66
11
346.2
21
66
0
LINE
8
bottom_outsideCutPath
10
346.2
20
66
11
346.2
21
79.4
0
LINE
8
bottom_outsideCutPath
10
346.2
20
79.4
11
339.7
21
79.4
0
LINE
8
bottom_outsideCutPath
10
339.7
20
79.4
11
339.7
21
92
0
LINE
8
bottom_outsideCutPath
10
339.7
20
92
11
346.2
21
92
0
LINE
8
bottom_outsideCutPath
10
346.2
20
92
11
346.2
21
105.4
0
LINE
8
bottom_outsideCutPath
10
346.2
20
105.4
11
339.7
21
105.4
0
LINE
8
bottom_outsideCutPath
10
339.7
20
105.4
11
339.7
21
109.9
0
LINE
8
bottom_outsideCutPath
10
339.7
20
109.9
11
335.2
21
109.9
0
LINE
8
bottom_outsideCutPath
10
335.2
20
109.9
11
335.2
21
116.4
0
LINE
8
bottom_outsideCutPath
10
335.2
20
116.4
11
321.8
21
116.4
0
LINE
8
bottom_outsideCutPath
10
321.8
20
116.4
11
321.8
21
109.9
0
LINE
8
bottom_outsideCutPath
10
321.8
20
109.9
11
309.2
21
109.9
0
LINE
8
bottom_outsideCutPath
10
309.2
20
109.9
11
309.2
21
116.4
0
LINE
8
bottom_outsideCutPath
10
309.2
20
116.4
11
295.8
21
116.4
0
LINE
8
bottom_outsideCutPath
10
295.8
20
116.4
11
295.8
21
109.9
0
LINE
8
bottom_outsideCutPath
10
295.8
20
109.9
11
283.2
21
109.9
0
LINE
8
bottom_outsideCutPath
10
283.2
20
109.9
11
283.2
21
116.4
0
LINE
8
bottom_outsideCutPath
10
283.2
20
116.4
11
269.8
21
116.4
0
LINE
8
bottom_outsideCutPath
10
269.8
20
116.4
11
269.8
21
109.9
0
LINE
8
bottom_outsideCutPath
10
269.8
20
109.9
11
257.2
21
109.9
0
LINE
8
bottom_outsideCutPath
10
257.2
20
109.9
11
257.2
21
116.4
0
LINE
8
bottom_outsideCutPath
10
257.2
20
116.4
11
243.8
21
116.4
0
LINE
8
bottom_outsideCutPath
10
243.8
20
116.4
11
243.8
21
109.9
0
LINE
8
bottom_outsideCutPath
10
243.8
20
109.9
11
239.3
21
109.9
0
LINE
8
bottom_outsideCutPath
10
239.3
20
109.9
11
239.3
21
105.4
0
LINE
8
bottom_outsideCutPath
10
239.3
20
105.4
11
232.8
21
105.4
0
LINE
8
bottom_outsideCutPath
10
232.8
20
105.4
11
232.8
21
92
0
LINE
8
bottom_outsideCutPath
10
232.8
20
92
11
239.3
21
92
0
LINE
8
bottom_outsideCutPath
10
239.3
20
92
11
239.3
21
79.4
0
LINE
8
bottom_outsideCutPath
10
239.3
20
79.4
11
232.8
21
79.4
0
LINE
8
bottom_outsideCutPath
10
232.8
20
79.4
11
232.8
21
66
0
LINE
8
bottom_outsideCutPath
10
232.8
20
66
11
239.3
21
66
0
LINE
8
bottom_outsideCutPath
10
239.3
20
66
11
239.3
21
53.4
0
LINE
8
bottom_outsideCutPath
10
239.3
20
53.4
11
232.8
21
53.4
0
LINE
8
bottom_outsideCutPath
10
232.8
20
53.4
11
232.8
21
40
0
LINE
8
bottom_outsideCutPath
10
232.8
20
40
11
239.3
21
40
0
LINE
8
bottom_outsideCutPath
10
239.3
20
40
11
239.3
21
27.4
0
LINE
8
bottom_outsideCutPath
10
239.3
20
27.4
11
232.8
21
27.4
0
LINE
8
bottom_outsideCutPath
10
232.8
20
27.4
11
232.8
21
14
0
LINE
8
bottom_outsideCutPath
10
232.8
20
14
11
239.3
21
14
0
LINE
8
bottom_outsideCutPath
10
239.3
20
14
11
239.3
21
9.5
0
LINE
8
bottom_outsideCutPath
10
239.3
20
9.5
11
243.8
21
9.5
0
LINE
8
bottom_outsideCutPath
10
243.8
20
9.5
11
243.8
21
3
0
LINE
8
bottom_outsideCutPath
10
243.8
20
3
11
257.2
21
3
0
LINE
8
bottom_outsideCutPath
10
257.2
20
3
11
257.2
21
9.5
0
ENDSEC
0
EOF